<svg id="Layer_1" data-name="Layer 1" xmlns="http://www.w3.org/2000/svg" viewBox="0 0 231.08 133.96"><defs><style>.cls-1{fill:#231f20;}.cls-2{fill:#65459b;}</style></defs><title>NextStep_logo</title><path class="cls-1" d="M171.19,229.16v49.91H156V229.16H138.24v-13H189v13Z" transform="translate(-80.6 -146)"/><path class="cls-1" d="M311.68,235.55a19.29,19.29,0,0,1-2,9.28,16.65,16.65,0,0,1-5.51,6.08,24.07,24.07,0,0,1-8,3.38,41,41,0,0,1-9.42,1.07h-7.54v23.71H264V216.19h23.09a43.3,43.3,0,0,1,9.63,1,22.65,22.65,0,0,1,7.82,3.29,15.88,15.88,0,0,1,5.24,5.95A19.64,19.64,0,0,1,311.68,235.55Zm-15.19.09a6.7,6.7,0,0,0-.89-3.64,6.15,6.15,0,0,0-2.39-2.22,10.47,10.47,0,0,0-3.42-1.07,28.18,28.18,0,0,0-4-.26h-6.66v14.83h6.39a22.44,22.44,0,0,0,4.08-.36,10.75,10.75,0,0,0,3.51-1.24,6.59,6.59,0,0,0,2.44-2.36A6.9,6.9,0,0,0,296.49,235.64Z" transform="translate(-80.6 -146)"/><rect class="cls-2" x="64.62" width="42.43" height="12.87"/><rect class="cls-2" x="64.62" y="50.45" width="44.02" height="12.87"/><rect class="cls-2" x="64.62" y="25.22" width="73.91" height="12"/><rect class="cls-1" x="55.37" y="171.22" width="63.31" height="12.87" transform="translate(-171.22 118.69) rotate(-90)"/><rect class="cls-1" x="98.7" y="171.22" width="63.31" height="12.87" transform="translate(-127.9 162.02) rotate(-90)"/><polygon class="cls-1" points="12.87 0 56.2 63.31 43.33 63.31 0 0 12.87 0"/><polygon class="cls-1" points="116.99 0 132.54 0 175.85 63.31 160.26 63.31 116.99 0"/><polygon class="cls-1" points="116.92 63.31 132.33 63.31 175.62 0 160.03 0 116.92 63.31"/><rect class="cls-1" x="252.67" y="171.22" width="63.31" height="12.87" transform="translate(26.07 315.98) rotate(-90)"/><rect class="cls-1" x="180.1" width="47.25" height="12.87"/><rect class="cls-1" x="122.37" y="69.75" width="44.02" height="12.87"/><rect class="cls-1" x="122.37" y="120.2" width="44.02" height="12.87"/><rect class="cls-1" x="122.37" y="94.97" width="44.02" height="12"/><rect class="cls-1" x="177.53" y="241.63" width="62.88" height="12" transform="translate(376 -107.34) rotate(90)"/><path class="cls-1" d="M94.49,260.51c1.44,6.36,6,9.14,13.33,9.14s10.43-2.88,10.43-7.52c0-5.15-3-7.39-13.88-9.91-17.23-4-21.49-10.31-21.49-18.86,0-11,8.26-18.52,23.24-18.52,16.81,0,23.51,9,24.42,18.29h-13.8c-.66-3.89-2.81-8.12-11-8.12-5.56,0-8.91,2.29-8.91,6.79s2.69,6.18,12.92,8.56c18.41,4.34,22.45,11.19,22.45,20.11,0,11.56-8.75,19.49-25.49,19.49-16.07,0-24.53-7.91-26-19.45Z" transform="translate(-80.6 -146)"/><polygon class="cls-2" points="153.99 31.66 132.33 63.31 116.92 63.31 138.51 31.49 116.99 0 132.54 0 153.99 31.66"/></svg>